# xmcd
#
# Track frame offsets: 
#        150
#        17541
#        34346
#        49126
#        67693
#        79779
#        92204
#        110160
#        123833
#        140155
#        157922
#        175525
#        192603
#
# Disc length: 2870 seconds
#
# Revision: 0
# Processed by: cddbd v1.5.2PL0 Copyright (c) Steve Scherf et al.
# Submitted via: ExactAudioCopy v0.99pb4
#
DISCID=aa0b340d
DTITLE=Gloriana - Gloriana
DYEAR=2009
DGENRE=Crossover
TTITLE0=How Far Do You Wanna Go?
TTITLE1=Wild At Heart
TTITLE2=The Way It Goes
TTITLE3=Lead Me On
TTITLE4=If You're Leavin'
TTITLE5=You Said
TTITLE6=Cry On Command
TTITLE7=Over Me Now?
TTITLE8=Come And Save Me
TTITLE9=Even If I Wanted To
TTITLE10=All The Things That Mean The Most
TTITLE11=Change Your Mind
TTITLE12=Time To Let Me Go
EXTD=
EXTT0=
EXTT1=
EXTT2=
EXTT3=
EXTT4=
EXTT5=
EXTT6=
EXTT7=
EXTT8=
EXTT9=
EXTT10=
EXTT11=
EXTT12=
PLAYORDER=
